<?xml version="1.0" encoding="UTF-8"?>
<svg xmlns="http://www.w3.org/2000/svg" width="900" height="320" viewBox="0 0 900 320">
  <defs>
    <linearGradient id="bg" x1="0" y1="0" x2="1" y2="1">
      <stop offset="0%" stop-color="#f8fafc"/><stop offset="100%" stop-color="#eef2ff"/>
    </linearGradient>
  </defs>
  <rect width="100%" height="100%" fill="url(#bg)"/>
  <text x="450" y="28" text-anchor="middle" font-family="Inter,Segoe UI,system-ui,sans-serif" font-size="16" font-weight="700" fill="#312e81">Knowledge graph review map</text>
  
    <rect x="30" y="80" width="160" height="70" rx="14" fill="#eef2ff" stroke="#6366f1" stroke-width="2"/><text x="110" y="110.5" text-anchor="middle" font-family="Inter,Segoe UI,system-ui,sans-serif" font-size="13" font-weight="650" fill="#1e293b">Quiz Q&amp;A +</text><text x="110" y="127.5" text-anchor="middle" font-family="Inter,Segoe UI,system-ui,sans-serif" font-size="13" font-weight="650" fill="#1e293b">explanations</text>
    <line x1="190" y1="115" x2="230" y2="115" stroke="#64748b" stroke-width="2"/>
  <polygon points="230,115 220,121 220,109" fill="#64748b"/>
    <rect x="230" y="80" width="170" height="70" rx="14" fill="#eef2ff" stroke="#6366f1" stroke-width="2"/><text x="315" y="110.5" text-anchor="middle" font-family="Inter,Segoe UI,system-ui,sans-serif" font-size="13" font-weight="650" fill="#1e293b">Cluster concepts</text><text x="315" y="127.5" text-anchor="middle" font-family="Inter,Segoe UI,system-ui,sans-serif" font-size="13" font-weight="650" fill="#1e293b">(local, no AI)</text>
    <line x1="400" y1="115" x2="440" y2="115" stroke="#64748b" stroke-width="2"/>
  <polygon points="440,115 430,121 430,109" fill="#64748b"/>
    <rect x="440" y="60" width="150" height="50" rx="14" fill="#ecfdf5" stroke="#10b981" stroke-width="2"/><text x="515" y="80.5" text-anchor="middle" font-family="Inter,Segoe UI,system-ui,sans-serif" font-size="13" font-weight="650" fill="#1e293b">Nodes</text><text x="515" y="97.5" text-anchor="middle" font-family="Inter,Segoe UI,system-ui,sans-serif" font-size="13" font-weight="650" fill="#1e293b">core·support·detail</text>
    <rect x="440" y="130" width="150" height="50" rx="14" fill="#fff7ed" stroke="#f59e0b" stroke-width="2"/><text x="515" y="150.5" text-anchor="middle" font-family="Inter,Segoe UI,system-ui,sans-serif" font-size="13" font-weight="650" fill="#1e293b">Edges</text><text x="515" y="167.5" text-anchor="middle" font-family="Inter,Segoe UI,system-ui,sans-serif" font-size="13" font-weight="650" fill="#1e293b">review links</text>
    <line x1="590" y1="115" x2="630" y2="115" stroke="#64748b" stroke-width="2"/>
  <polygon points="630,115 620,121 620,109" fill="#64748b"/>
    <rect x="630" y="80" width="150" height="70" rx="14" fill="#eef2ff" stroke="#6366f1" stroke-width="2"/><text x="705" y="110.5" text-anchor="middle" font-family="Inter,Segoe UI,system-ui,sans-serif" font-size="13" font-weight="650" fill="#1e293b">HTML map</text><text x="705" y="127.5" text-anchor="middle" font-family="Inter,Segoe UI,system-ui,sans-serif" font-size="13" font-weight="650" fill="#1e293b">zoom · pan · click</text>
    <line x1="780" y1="115" x2="820" y2="115" stroke="#64748b" stroke-width="2"/>
  <polygon points="820,115 810,121 810,109" fill="#64748b"/>
    <rect x="820" y="80" width="60" height="70" rx="14" fill="#faf5ff" stroke="#8b5cf6" stroke-width="2"/><text x="850" y="111" text-anchor="middle" font-family="Inter,Segoe UI,system-ui,sans-serif" font-size="12" font-weight="650" fill="#1e293b">Review</text><text x="850" y="127" text-anchor="middle" font-family="Inter,Segoe UI,system-ui,sans-serif" font-size="12" font-weight="650" fill="#1e293b">panel</text>
  
</svg>