<?xml version="1.0" encoding="UTF-8"?>
<svg xmlns="http://www.w3.org/2000/svg" width="880" height="360" viewBox="0 0 880 360">
  <defs>
    <linearGradient id="bg" x1="0" y1="0" x2="1" y2="1">
      <stop offset="0%" stop-color="#f8fafc"/><stop offset="100%" stop-color="#eef2ff"/>
    </linearGradient>
  </defs>
  <rect width="100%" height="100%" fill="url(#bg)"/>
  <text x="440" y="28" text-anchor="middle" font-family="Inter,Segoe UI,system-ui,sans-serif" font-size="16" font-weight="700" fill="#312e81">Accessible inputs (camera is optional)</text>
  
    <rect x="40" y="70" width="220" height="90" rx="14" fill="#ecfdf5" stroke="#059669" stroke-width="2"/><text x="150" y="110.5" text-anchor="middle" font-family="Inter,Segoe UI,system-ui,sans-serif" font-size="13" font-weight="650" fill="#1e293b">PRIMARY</text><text x="150" y="127.5" text-anchor="middle" font-family="Inter,Segoe UI,system-ui,sans-serif" font-size="13" font-weight="650" fill="#1e293b">Keyboard + Touch</text>
    <rect x="40" y="200" width="220" height="90" rx="14" fill="#eef2ff" stroke="#6366f1" stroke-width="2"/><text x="150" y="232" text-anchor="middle" font-family="Inter,Segoe UI,system-ui,sans-serif" font-size="13" font-weight="650" fill="#1e293b">OPTIONAL</text><text x="150" y="249" text-anchor="middle" font-family="Inter,Segoe UI,system-ui,sans-serif" font-size="13" font-weight="650" fill="#1e293b">Nose tip · Hand</text><text x="150" y="266" text-anchor="middle" font-family="Inter,Segoe UI,system-ui,sans-serif" font-size="13" font-weight="650" fill="#1e293b">MediaPipe on-device</text>
    <line x1="260" y1="115" x2="360" y2="160" stroke="#64748b" stroke-width="2"/>
  <polygon points="360,160 348.41859688427616,161.36788225776266 353.34297301222176,150.4248241956614" fill="#64748b"/>
    <line x1="260" y1="245" x2="360" y2="190" stroke="#64748b" stroke-width="2"/>
  <polygon points="360,190 354.1293534118665,200.07648294978145 348.3463284146006,189.5618920456617" fill="#64748b"/>
    <rect x="360" y="130" width="220" height="100" rx="14" fill="#fff" stroke="#4f46e5" stroke-width="2"/><text x="470" y="175.5" text-anchor="middle" font-family="Inter,Segoe UI,system-ui,sans-serif" font-size="13" font-weight="650" fill="#1e293b">Quiz / flashcards</text><text x="470" y="192.5" text-anchor="middle" font-family="Inter,Segoe UI,system-ui,sans-serif" font-size="13" font-weight="650" fill="#1e293b">navigation</text>
    <rect x="640" y="80" width="200" height="70" rx="14" fill="#fef2f2" stroke="#f43f5e" stroke-width="2"/><text x="740" y="110.5" text-anchor="middle" font-family="Inter,Segoe UI,system-ui,sans-serif" font-size="13" font-weight="650" fill="#1e293b">Webcam</text><text x="740" y="127.5" text-anchor="middle" font-family="Inter,Segoe UI,system-ui,sans-serif" font-size="13" font-weight="650" fill="#1e293b">off by default</text>
    <line x1="740" y1="150" x2="740" y2="200" stroke="#64748b" stroke-width="2"/>
  <polygon points="740,200 734,190 746,190" fill="#64748b"/>
    <rect x="640" y="210" width="200" height="70" rx="14" fill="#f8fafc" stroke="#64748b" stroke-width="2"/><text x="740" y="240.5" text-anchor="middle" font-family="Inter,Segoe UI,system-ui,sans-serif" font-size="13" font-weight="650" fill="#1e293b">Landmarks stay</text><text x="740" y="257.5" text-anchor="middle" font-family="Inter,Segoe UI,system-ui,sans-serif" font-size="13" font-weight="650" fill="#1e293b">in the browser</text>
  
</svg>