<?xml version="1.0" encoding="UTF-8"?>
<svg xmlns="http://www.w3.org/2000/svg" width="920" height="300" viewBox="0 0 920 300">
  <defs>
    <linearGradient id="bg" x1="0" y1="0" x2="1" y2="1">
      <stop offset="0%" stop-color="#f8fafc"/><stop offset="100%" stop-color="#eef2ff"/>
    </linearGradient>
  </defs>
  <rect width="100%" height="100%" fill="url(#bg)"/>
  <text x="460" y="28" text-anchor="middle" font-family="Inter,Segoe UI,system-ui,sans-serif" font-size="16" font-weight="700" fill="#312e81">Bloom percentages → question targets</text>
  
    <rect x="20" y="100" width="150" height="70" rx="14" fill="#eef2ff" stroke="#6366f1" stroke-width="2"/><text x="95" y="130.5" text-anchor="middle" font-family="Inter,Segoe UI,system-ui,sans-serif" font-size="13" font-weight="650" fill="#1e293b">Set C1–C5</text><text x="95" y="147.5" text-anchor="middle" font-family="Inter,Segoe UI,system-ui,sans-serif" font-size="13" font-weight="650" fill="#1e293b">percentages</text>
    <line x1="170" y1="135" x2="200" y2="135" stroke="#64748b" stroke-width="2"/>
  <polygon points="200,135 190,141 190,129" fill="#64748b"/>
    <rect x="200" y="100" width="140" height="70" rx="14" fill="#eef2ff" stroke="#6366f1" stroke-width="2"/><text x="270" y="139" text-anchor="middle" font-family="Inter,Segoe UI,system-ui,sans-serif" font-size="13" font-weight="650" fill="#1e293b">Total count N</text>
    <line x1="340" y1="135" x2="370" y2="135" stroke="#64748b" stroke-width="2"/>
  <polygon points="370,135 360,141 360,129" fill="#64748b"/>
    <rect x="370" y="100" width="150" height="70" rx="14" fill="#eef2ff" stroke="#6366f1" stroke-width="2"/><text x="445" y="130.5" text-anchor="middle" font-family="Inter,Segoe UI,system-ui,sans-serif" font-size="13" font-weight="650" fill="#1e293b">Allocate per</text><text x="445" y="147.5" text-anchor="middle" font-family="Inter,Segoe UI,system-ui,sans-serif" font-size="13" font-weight="650" fill="#1e293b">level + concept</text>
    <line x1="520" y1="135" x2="550" y2="135" stroke="#64748b" stroke-width="2"/>
  <polygon points="550,135 540,141 540,129" fill="#64748b"/>
    <rect x="550" y="100" width="150" height="70" rx="14" fill="#eef2ff" stroke="#6366f1" stroke-width="2"/><text x="625" y="130.5" text-anchor="middle" font-family="Inter,Segoe UI,system-ui,sans-serif" font-size="13" font-weight="650" fill="#1e293b">Parallel</text><text x="625" y="147.5" text-anchor="middle" font-family="Inter,Segoe UI,system-ui,sans-serif" font-size="13" font-weight="650" fill="#1e293b">Bloom batches</text>
    <line x1="700" y1="135" x2="730" y2="135" stroke="#64748b" stroke-width="2"/>
  <polygon points="730,135 720,141 720,129" fill="#64748b"/>
    <rect x="730" y="70" width="160" height="55" rx="14" fill="#fefce8" stroke="#ca8a04" stroke-width="2"/><text x="810" y="101.5" text-anchor="middle" font-family="Inter,Segoe UI,system-ui,sans-serif" font-size="13" font-weight="650" fill="#1e293b">Coverage OK?</text>
    <rect x="730" y="150" width="160" height="55" rx="14" fill="#fff1f2" stroke="#e11d48" stroke-width="2"/><text x="810" y="173.5" text-anchor="middle" font-family="Inter,Segoe UI,system-ui,sans-serif" font-size="12" font-weight="650" fill="#1e293b">Smart Overflow</text><text x="810" y="189.5" text-anchor="middle" font-family="Inter,Segoe UI,system-ui,sans-serif" font-size="12" font-weight="650" fill="#1e293b">+1 level</text>
    <line x1="890" y1="135" x2="910" y2="135" stroke="#64748b" stroke-width="2"/>
  <polygon points="910,135 900,141 900,129" fill="#64748b"/>
  
</svg>