<?xml version="1.0" encoding="UTF-8"?>
<svg xmlns="http://www.w3.org/2000/svg" width="902" height="360" viewBox="0 0 902 360">
  <defs>
    <linearGradient id="bg" x1="0" y1="0" x2="1" y2="1">
      <stop offset="0%" stop-color="#eef2ff"/>
      <stop offset="100%" stop-color="#faf5ff"/>
    </linearGradient>
  </defs>
  <rect width="100%" height="100%" fill="url(#bg)"/>
  <text x="451" y="30" text-anchor="middle" font-family="Inter,Segoe UI,system-ui,sans-serif" font-size="18" font-weight="700" fill="#1e293b">Bloom percentage levels (C1–C5)</text>
  <text x="451" y="46" text-anchor="middle" font-family="Inter,Segoe UI,system-ui,sans-serif" font-size="11" fill="#64748b">Source: README.md · Noodl</text>
<rect x="0" y="48" width="300" height="42" fill="#4f46e5"/><text x="16" y="74" font-family="Inter,Segoe UI,system-ui,sans-serif" font-size="13" font-weight="700" fill="#ffffff">Level</text><rect x="300" y="48" width="300" height="42" fill="#4f46e5"/><text x="316" y="74" font-family="Inter,Segoe UI,system-ui,sans-serif" font-size="13" font-weight="700" fill="#ffffff">Cognitive target</text><rect x="600" y="48" width="300" height="42" fill="#4f46e5"/><text x="616" y="74" font-family="Inter,Segoe UI,system-ui,sans-serif" font-size="13" font-weight="700" fill="#ffffff">Example intention</text><rect x="0" y="90" width="300" height="42" fill="#ffffff" stroke="#e2e8f0"/><text x="16" y="116" font-family="Inter,Segoe UI,system-ui,sans-serif" font-size="12" fill="#334155">C1</text><rect x="300" y="90" width="300" height="42" fill="#ffffff" stroke="#e2e8f0"/><text x="316" y="116" font-family="Inter,Segoe UI,system-ui,sans-serif" font-size="12" fill="#334155">Remember</text><rect x="600" y="90" width="300" height="42" fill="#ffffff" stroke="#e2e8f0"/><text x="616" y="116" font-family="Inter,Segoe UI,system-ui,sans-serif" font-size="12" fill="#334155">Recall a definition, term, or fact</text><rect x="0" y="132" width="300" height="42" fill="#f8fafc" stroke="#e2e8f0"/><text x="16" y="158" font-family="Inter,Segoe UI,system-ui,sans-serif" font-size="12" fill="#334155">C2</text><rect x="300" y="132" width="300" height="42" fill="#f8fafc" stroke="#e2e8f0"/><text x="316" y="158" font-family="Inter,Segoe UI,system-ui,sans-serif" font-size="12" fill="#334155">Understand</text><rect x="600" y="132" width="300" height="42" fill="#f8fafc" stroke="#e2e8f0"/><text x="616" y="158" font-family="Inter,Segoe UI,system-ui,sans-serif" font-size="12" fill="#334155">Explain or distinguish an idea</text><rect x="0" y="174" width="300" height="42" fill="#ffffff" stroke="#e2e8f0"/><text x="16" y="200" font-family="Inter,Segoe UI,system-ui,sans-serif" font-size="12" fill="#334155">C3</text><rect x="300" y="174" width="300" height="42" fill="#ffffff" stroke="#e2e8f0"/><text x="316" y="200" font-family="Inter,Segoe UI,system-ui,sans-serif" font-size="12" fill="#334155">Apply</text><rect x="600" y="174" width="300" height="42" fill="#ffffff" stroke="#e2e8f0"/><text x="616" y="200" font-family="Inter,Segoe UI,system-ui,sans-serif" font-size="12" fill="#334155">Use the idea in a concrete situation</text><rect x="0" y="216" width="300" height="60" fill="#f8fafc" stroke="#e2e8f0"/><text x="16" y="242" font-family="Inter,Segoe UI,system-ui,sans-serif" font-size="12" fill="#334155">C4</text><rect x="300" y="216" width="300" height="60" fill="#f8fafc" stroke="#e2e8f0"/><text x="316" y="242" font-family="Inter,Segoe UI,system-ui,sans-serif" font-size="12" fill="#334155">Analyze</text><rect x="600" y="216" width="300" height="60" fill="#f8fafc" stroke="#e2e8f0"/><text x="616" y="242" font-family="Inter,Segoe UI,system-ui,sans-serif" font-size="12" fill="#334155">Compare, decompose, or infer</text><text x="616" y="260" font-family="Inter,Segoe UI,system-ui,sans-serif" font-size="12" fill="#334155">relationships</text><rect x="0" y="276" width="300" height="60" fill="#ffffff" stroke="#e2e8f0"/><text x="16" y="302" font-family="Inter,Segoe UI,system-ui,sans-serif" font-size="12" fill="#334155">C5</text><rect x="300" y="276" width="300" height="60" fill="#ffffff" stroke="#e2e8f0"/><text x="316" y="302" font-family="Inter,Segoe UI,system-ui,sans-serif" font-size="12" fill="#334155">Evaluate</text><rect x="600" y="276" width="300" height="60" fill="#ffffff" stroke="#e2e8f0"/><text x="616" y="302" font-family="Inter,Segoe UI,system-ui,sans-serif" font-size="12" fill="#334155">Judge alternatives using evidence or</text><text x="616" y="320" font-family="Inter,Segoe UI,system-ui,sans-serif" font-size="12" fill="#334155">criteria</text></svg>