<?xml version="1.0" encoding="UTF-8"?>
<svg xmlns="http://www.w3.org/2000/svg" width="842" height="462" viewBox="0 0 842 462">
  <defs>
    <linearGradient id="bg" x1="0" y1="0" x2="1" y2="1">
      <stop offset="0%" stop-color="#eef2ff"/>
      <stop offset="100%" stop-color="#faf5ff"/>
    </linearGradient>
  </defs>
  <rect width="100%" height="100%" fill="url(#bg)"/>
  <text x="421" y="30" text-anchor="middle" font-family="Inter,Segoe UI,system-ui,sans-serif" font-size="18" font-weight="700" fill="#1e293b">Learning experiences after generation</text>
  <text x="421" y="46" text-anchor="middle" font-family="Inter,Segoe UI,system-ui,sans-serif" font-size="11" fill="#64748b">Source: README.md · Noodl</text>
<rect x="0" y="48" width="420" height="42" fill="#4f46e5"/><text x="16" y="74" font-family="Inter,Segoe UI,system-ui,sans-serif" font-size="13" font-weight="700" fill="#ffffff">Experience</text><rect x="420" y="48" width="420" height="42" fill="#4f46e5"/><text x="436" y="74" font-family="Inter,Segoe UI,system-ui,sans-serif" font-size="13" font-weight="700" fill="#ffffff">Purpose</text><rect x="0" y="90" width="420" height="60" fill="#ffffff" stroke="#e2e8f0"/><text x="16" y="116" font-family="Inter,Segoe UI,system-ui,sans-serif" font-size="12" fill="#334155">Standard / Survival / Time Rush</text><rect x="420" y="90" width="420" height="60" fill="#ffffff" stroke="#e2e8f0"/><text x="436" y="116" font-family="Inter,Segoe UI,system-ui,sans-serif" font-size="12" fill="#334155">Different retrieval pressure without changing source</text><text x="436" y="134" font-family="Inter,Segoe UI,system-ui,sans-serif" font-size="12" fill="#334155">truth</text><rect x="0" y="150" width="420" height="42" fill="#f8fafc" stroke="#e2e8f0"/><text x="16" y="176" font-family="Inter,Segoe UI,system-ui,sans-serif" font-size="12" fill="#334155">Keyboard-first quiz controls</text><rect x="420" y="150" width="420" height="42" fill="#f8fafc" stroke="#e2e8f0"/><text x="436" y="176" font-family="Inter,Segoe UI,system-ui,sans-serif" font-size="12" fill="#334155">Answer and navigate without repetitive pointer travel</text><rect x="0" y="192" width="420" height="42" fill="#ffffff" stroke="#e2e8f0"/><text x="16" y="218" font-family="Inter,Segoe UI,system-ui,sans-serif" font-size="12" fill="#334155">Swipeable flashcards</text><rect x="420" y="192" width="420" height="42" fill="#ffffff" stroke="#e2e8f0"/><text x="436" y="218" font-family="Inter,Segoe UI,system-ui,sans-serif" font-size="12" fill="#334155">Rate recall instead of one interaction pattern</text><rect x="0" y="234" width="420" height="42" fill="#f8fafc" stroke="#e2e8f0"/><text x="16" y="260" font-family="Inter,Segoe UI,system-ui,sans-serif" font-size="12" fill="#334155">Neuro-Sync</text><rect x="420" y="234" width="420" height="42" fill="#f8fafc" stroke="#e2e8f0"/><text x="436" y="260" font-family="Inter,Segoe UI,system-ui,sans-serif" font-size="12" fill="#334155">Return weak items through an SM-2-style schedule</text><rect x="0" y="276" width="420" height="42" fill="#ffffff" stroke="#e2e8f0"/><text x="16" y="302" font-family="Inter,Segoe UI,system-ui,sans-serif" font-size="12" fill="#334155">Mix Room</text><rect x="420" y="276" width="420" height="42" fill="#ffffff" stroke="#e2e8f0"/><text x="436" y="302" font-family="Inter,Segoe UI,system-ui,sans-serif" font-size="12" fill="#334155">Combine saved units into a broader exam simulation</text><rect x="0" y="318" width="420" height="60" fill="#f8fafc" stroke="#e2e8f0"/><text x="16" y="344" font-family="Inter,Segoe UI,system-ui,sans-serif" font-size="12" fill="#334155">Knowledge views</text><rect x="420" y="318" width="420" height="60" fill="#f8fafc" stroke="#e2e8f0"/><text x="436" y="344" font-family="Inter,Segoe UI,system-ui,sans-serif" font-size="12" fill="#334155">Summaries, insights, simulations, and knowledge</text><text x="436" y="362" font-family="Inter,Segoe UI,system-ui,sans-serif" font-size="12" fill="#334155">graphs</text><rect x="0" y="378" width="420" height="60" fill="#ffffff" stroke="#e2e8f0"/><text x="16" y="404" font-family="Inter,Segoe UI,system-ui,sans-serif" font-size="12" fill="#334155">Public learning packs</text><rect x="420" y="378" width="420" height="60" fill="#ffffff" stroke="#e2e8f0"/><text x="436" y="404" font-family="Inter,Segoe UI,system-ui,sans-serif" font-size="12" fill="#334155">Generate once, distribute without every learner</text><text x="436" y="422" font-family="Inter,Segoe UI,system-ui,sans-serif" font-size="12" fill="#334155">owning a key</text></svg>