<?xml version="1.0" encoding="UTF-8"?>
<svg xmlns="http://www.w3.org/2000/svg" width="842" height="324" viewBox="0 0 842 324">
  <defs>
    <linearGradient id="bg" x1="0" y1="0" x2="1" y2="1">
      <stop offset="0%" stop-color="#eef2ff"/>
      <stop offset="100%" stop-color="#faf5ff"/>
    </linearGradient>
  </defs>
  <rect width="100%" height="100%" fill="url(#bg)"/>
  <text x="421" y="30" text-anchor="middle" font-family="Inter,Segoe UI,system-ui,sans-serif" font-size="18" font-weight="700" fill="#1e293b">OpenAI Build Week submission evidence</text>
  <text x="421" y="46" text-anchor="middle" font-family="Inter,Segoe UI,system-ui,sans-serif" font-size="11" fill="#64748b">Source: README.md · Noodl</text>
<rect x="0" y="48" width="420" height="42" fill="#4f46e5"/><text x="16" y="74" font-family="Inter,Segoe UI,system-ui,sans-serif" font-size="13" font-weight="700" fill="#ffffff">Item</text><rect x="420" y="48" width="420" height="42" fill="#4f46e5"/><text x="436" y="74" font-family="Inter,Segoe UI,system-ui,sans-serif" font-size="13" font-weight="700" fill="#ffffff">Status</text><rect x="0" y="90" width="420" height="42" fill="#ffffff" stroke="#e2e8f0"/><text x="16" y="116" font-family="Inter,Segoe UI,system-ui,sans-serif" font-size="12" fill="#334155">Competition</text><rect x="420" y="90" width="420" height="42" fill="#ffffff" stroke="#e2e8f0"/><text x="436" y="116" font-family="Inter,Segoe UI,system-ui,sans-serif" font-size="12" fill="#334155">OpenAI Build Week 2026 · Education</text><rect x="0" y="132" width="420" height="42" fill="#f8fafc" stroke="#e2e8f0"/><text x="16" y="158" font-family="Inter,Segoe UI,system-ui,sans-serif" font-size="12" fill="#334155">Source</text><rect x="420" y="132" width="420" height="42" fill="#f8fafc" stroke="#e2e8f0"/><text x="436" y="158" font-family="Inter,Segoe UI,system-ui,sans-serif" font-size="12" fill="#334155">github.com/SeraKah-1/noodl · MIT</text><rect x="0" y="174" width="420" height="42" fill="#ffffff" stroke="#e2e8f0"/><text x="16" y="200" font-family="Inter,Segoe UI,system-ui,sans-serif" font-size="12" fill="#334155">Live product</text><rect x="420" y="174" width="420" height="42" fill="#ffffff" stroke="#e2e8f0"/><text x="436" y="200" font-family="Inter,Segoe UI,system-ui,sans-serif" font-size="12" fill="#334155">noodl-beta.vercel.app</text><rect x="0" y="216" width="420" height="42" fill="#f8fafc" stroke="#e2e8f0"/><text x="16" y="242" font-family="Inter,Segoe UI,system-ui,sans-serif" font-size="12" fill="#334155">Demo video</text><rect x="420" y="216" width="420" height="42" fill="#f8fafc" stroke="#e2e8f0"/><text x="436" y="242" font-family="Inter,Segoe UI,system-ui,sans-serif" font-size="12" fill="#334155">Pending final public YouTube upload</text><rect x="0" y="258" width="420" height="42" fill="#ffffff" stroke="#e2e8f0"/><text x="16" y="284" font-family="Inter,Segoe UI,system-ui,sans-serif" font-size="12" fill="#334155">Runtime model policy</text><rect x="420" y="258" width="420" height="42" fill="#ffffff" stroke="#e2e8f0"/><text x="436" y="284" font-family="Inter,Segoe UI,system-ui,sans-serif" font-size="12" fill="#334155">Multi-provider, bring your own key</text></svg>