<?xml version="1.0" encoding="UTF-8"?>
<svg xmlns="http://www.w3.org/2000/svg" width="902" height="366" viewBox="0 0 902 366">
  <defs>
    <linearGradient id="bg" x1="0" y1="0" x2="1" y2="1">
      <stop offset="0%" stop-color="#eef2ff"/>
      <stop offset="100%" stop-color="#faf5ff"/>
    </linearGradient>
  </defs>
  <rect width="100%" height="100%" fill="url(#bg)"/>
  <text x="451" y="30" text-anchor="middle" font-family="Inter,Segoe UI,system-ui,sans-serif" font-size="18" font-weight="700" fill="#1e293b">What syncs to Supabase</text>
  <text x="451" y="46" text-anchor="middle" font-family="Inter,Segoe UI,system-ui,sans-serif" font-size="11" fill="#64748b">Source: docs/SUPABASE.md · Noodl</text>
<rect x="0" y="48" width="300" height="42" fill="#4f46e5"/><text x="16" y="74" font-family="Inter,Segoe UI,system-ui,sans-serif" font-size="13" font-weight="700" fill="#ffffff">Data</text><rect x="300" y="48" width="300" height="42" fill="#4f46e5"/><text x="316" y="74" font-family="Inter,Segoe UI,system-ui,sans-serif" font-size="13" font-weight="700" fill="#ffffff">Table</text><rect x="600" y="48" width="300" height="42" fill="#4f46e5"/><text x="616" y="74" font-family="Inter,Segoe UI,system-ui,sans-serif" font-size="13" font-weight="700" fill="#ffffff">When</text><rect x="0" y="90" width="300" height="42" fill="#ffffff" stroke="#e2e8f0"/><text x="16" y="116" font-family="Inter,Segoe UI,system-ui,sans-serif" font-size="12" fill="#334155">Quizzes</text><rect x="300" y="90" width="300" height="42" fill="#ffffff" stroke="#e2e8f0"/><text x="316" y="116" font-family="Inter,Segoe UI,system-ui,sans-serif" font-size="12" fill="#334155">quizzes</text><rect x="600" y="90" width="300" height="42" fill="#ffffff" stroke="#e2e8f0"/><text x="616" y="116" font-family="Inter,Segoe UI,system-ui,sans-serif" font-size="12" fill="#334155">save / login / online / realtime</text><rect x="0" y="132" width="300" height="42" fill="#f8fafc" stroke="#e2e8f0"/><text x="16" y="158" font-family="Inter,Segoe UI,system-ui,sans-serif" font-size="12" fill="#334155">Library materials</text><rect x="300" y="132" width="300" height="42" fill="#f8fafc" stroke="#e2e8f0"/><text x="316" y="158" font-family="Inter,Segoe UI,system-ui,sans-serif" font-size="12" fill="#334155">library_items</text><rect x="600" y="132" width="300" height="42" fill="#f8fafc" stroke="#e2e8f0"/><text x="616" y="158" font-family="Inter,Segoe UI,system-ui,sans-serif" font-size="12" fill="#334155">sync cycle</text><rect x="0" y="174" width="300" height="42" fill="#ffffff" stroke="#e2e8f0"/><text x="16" y="200" font-family="Inter,Segoe UI,system-ui,sans-serif" font-size="12" fill="#334155">SRS cards</text><rect x="300" y="174" width="300" height="42" fill="#ffffff" stroke="#e2e8f0"/><text x="316" y="200" font-family="Inter,Segoe UI,system-ui,sans-serif" font-size="12" fill="#334155">srs_items</text><rect x="600" y="174" width="300" height="42" fill="#ffffff" stroke="#e2e8f0"/><text x="616" y="200" font-family="Inter,Segoe UI,system-ui,sans-serif" font-size="12" fill="#334155">add/review + sync</text><rect x="0" y="216" width="300" height="42" fill="#f8fafc" stroke="#e2e8f0"/><text x="16" y="242" font-family="Inter,Segoe UI,system-ui,sans-serif" font-size="12" fill="#334155">Device registry</text><rect x="300" y="216" width="300" height="42" fill="#f8fafc" stroke="#e2e8f0"/><text x="316" y="242" font-family="Inter,Segoe UI,system-ui,sans-serif" font-size="12" fill="#334155">devices</text><rect x="600" y="216" width="300" height="42" fill="#f8fafc" stroke="#e2e8f0"/><text x="616" y="242" font-family="Inter,Segoe UI,system-ui,sans-serif" font-size="12" fill="#334155">each full sync</text><rect x="0" y="258" width="300" height="42" fill="#ffffff" stroke="#e2e8f0"/><text x="16" y="284" font-family="Inter,Segoe UI,system-ui,sans-serif" font-size="12" fill="#334155">Sync cursor</text><rect x="300" y="258" width="300" height="42" fill="#ffffff" stroke="#e2e8f0"/><text x="316" y="284" font-family="Inter,Segoe UI,system-ui,sans-serif" font-size="12" fill="#334155">sync_state</text><rect x="600" y="258" width="300" height="42" fill="#ffffff" stroke="#e2e8f0"/><text x="616" y="284" font-family="Inter,Segoe UI,system-ui,sans-serif" font-size="12" fill="#334155">pull/push timestamps</text><rect x="0" y="300" width="300" height="42" fill="#f8fafc" stroke="#e2e8f0"/><text x="16" y="326" font-family="Inter,Segoe UI,system-ui,sans-serif" font-size="12" fill="#334155">Profile</text><rect x="300" y="300" width="300" height="42" fill="#f8fafc" stroke="#e2e8f0"/><text x="316" y="326" font-family="Inter,Segoe UI,system-ui,sans-serif" font-size="12" fill="#334155">user_profiles</text><rect x="600" y="300" width="300" height="42" fill="#f8fafc" stroke="#e2e8f0"/><text x="616" y="326" font-family="Inter,Segoe UI,system-ui,sans-serif" font-size="12" fill="#334155">display name / last device</text></svg>